<mxfile host="app.diagrams.net" modified="2023-04-16T09:07:28.067Z" agent="5.0 (X11; Ubuntu)" etag="wWs__MlRpD1ENg504lNP" version="21.0.8" type="github">
  <diagram name="Seite-1" id="WIlFP_-YqcEN8Ks7jPTe">
    <mxGraphModel dx="1858" dy="1278" grid="1" gridSize="10" guides="1" tooltips="1" connect="1" arrows="1" fold="1" page="1" pageScale="1" pageWidth="1200" pageHeight="1920" math="0" shadow="0">
      <root>
        <mxCell id="0" />
        <mxCell id="1" parent="0" />
        <mxCell id="FdKZKXFYypH6AvHxXqry-1" value="1" style="ellipse;whiteSpace=wrap;html=1;aspect=fixed;" vertex="1" parent="1">
          <mxGeometry x="422.5" y="132.5" width="15" height="15" as="geometry" />
        </mxCell>
        <mxCell id="FdKZKXFYypH6AvHxXqry-2" value="&lt;h1&gt;&lt;font style=&quot;font-size: 18px;&quot;&gt;MVP&lt;/font&gt;&lt;/h1&gt;&lt;p&gt;Altersrentenfestsetzung für eine Direktzusage-VO (DSK-Z86), automatisierte Berechnung, Rentenprozesse über SAP, (halb-)manuelles Rentenbestätigungsschreiben&lt;br&gt;&lt;/p&gt;" style="text;html=1;strokeColor=none;fillColor=none;spacing=5;spacingTop=-20;whiteSpace=wrap;overflow=hidden;rounded=0;" vertex="1" parent="1">
          <mxGeometry x="480" y="80" width="190" height="140" as="geometry" />
        </mxCell>
        <mxCell id="FdKZKXFYypH6AvHxXqry-3" value="&lt;h1&gt;&lt;font style=&quot;font-size: 18px;&quot;&gt;MVP&lt;/font&gt;&lt;/h1&gt;technisch an BAVOS angebunden, berechnet Altersverrentung des DSK-Z86" style="text;html=1;strokeColor=none;fillColor=none;spacing=5;spacingTop=-20;whiteSpace=wrap;overflow=hidden;rounded=0;" vertex="1" parent="1">
          <mxGeometry x="100" y="80" width="190" height="120" as="geometry" />
        </mxCell>
        <mxCell id="FdKZKXFYypH6AvHxXqry-4" value="&lt;font style=&quot;font-size: 20px;&quot; color=&quot;#000099&quot;&gt;&lt;b&gt;BAV-Manager&lt;/b&gt;&lt;/font&gt;" style="text;html=1;strokeColor=none;fillColor=none;align=center;verticalAlign=middle;whiteSpace=wrap;rounded=0;" vertex="1" parent="1">
          <mxGeometry x="80" y="10" width="160" height="30" as="geometry" />
        </mxCell>
        <mxCell id="FdKZKXFYypH6AvHxXqry-5" value="&lt;font size=&quot;1&quot; color=&quot;#000099&quot;&gt;&lt;b style=&quot;font-size: 20px;&quot;&gt;BAVOS&lt;/b&gt;&lt;/font&gt;" style="text;html=1;strokeColor=none;fillColor=none;align=center;verticalAlign=middle;whiteSpace=wrap;rounded=0;" vertex="1" parent="1">
          <mxGeometry x="470" y="10" width="160" height="30" as="geometry" />
        </mxCell>
        <mxCell id="FdKZKXFYypH6AvHxXqry-6" value="&lt;font size=&quot;1&quot; color=&quot;#000099&quot;&gt;&lt;b style=&quot;font-size: 20px;&quot;&gt;B2C-Portal&lt;/b&gt;&lt;/font&gt;" style="text;html=1;strokeColor=none;fillColor=none;align=center;verticalAlign=middle;whiteSpace=wrap;rounded=0;" vertex="1" parent="1">
          <mxGeometry x="760" y="10" width="160" height="30" as="geometry" />
        </mxCell>
        <mxCell id="FdKZKXFYypH6AvHxXqry-7" value="Triger für Altersrentenanträge" style="text;html=1;strokeColor=none;fillColor=none;align=left;verticalAlign=middle;whiteSpace=wrap;rounded=0;" vertex="1" parent="1">
          <mxGeometry x="790" y="120" width="60" height="30" as="geometry" />
        </mxCell>
        <mxCell id="FdKZKXFYypH6AvHxXqry-8" value="&lt;font size=&quot;1&quot; color=&quot;#000099&quot;&gt;&lt;b style=&quot;font-size: 20px;&quot;&gt;DOXIS&lt;/b&gt;&lt;/font&gt;" style="text;html=1;strokeColor=none;fillColor=none;align=center;verticalAlign=middle;whiteSpace=wrap;rounded=0;" vertex="1" parent="1">
          <mxGeometry x="980" y="10" width="160" height="30" as="geometry" />
        </mxCell>
        <mxCell id="FdKZKXFYypH6AvHxXqry-9" value="Triger für Altersrentenanträge" style="text;html=1;strokeColor=none;fillColor=none;align=left;verticalAlign=middle;whiteSpace=wrap;rounded=0;" vertex="1" parent="1">
          <mxGeometry x="1030" y="125" width="60" height="30" as="geometry" />
        </mxCell>
        <mxCell id="FdKZKXFYypH6AvHxXqry-10" value="&lt;h1&gt;&lt;font style=&quot;font-size: 18px;&quot;&gt;Direktzusagen vollständig für Anwärter&lt;br&gt;&lt;/font&gt;&lt;/h1&gt;&lt;p&gt;Erweiterung auf alle lebenszyklischen Prozesse (aus Zahlung und B2A-Meldungen)&lt;br&gt;&lt;/p&gt;&lt;p&gt;Erweiterung auf alle M200-VOs&lt;/p&gt;&lt;p&gt;Migration aus M200 vollständig&lt;/p&gt;&lt;p&gt;Bestandsveränderungsmeldung aus Firmenportal&lt;br&gt;&lt;/p&gt;" style="text;html=1;strokeColor=none;fillColor=none;spacing=5;spacingTop=-20;whiteSpace=wrap;overflow=hidden;rounded=0;" vertex="1" parent="1">
          <mxGeometry x="480" y="270" width="190" height="250" as="geometry" />
        </mxCell>
        <mxCell id="FdKZKXFYypH6AvHxXqry-12" value="&lt;h1&gt;&lt;font style=&quot;font-size: 18px;&quot;&gt;nrPP Neugeschäft&lt;br&gt;&lt;/font&gt;&lt;/h1&gt;&lt;div&gt;fondsbasierte Zusagen im BVV-PF&lt;/div&gt;&lt;div&gt;&lt;br&gt;&lt;/div&gt;&lt;div&gt;fondsakzessorische Direktzusagen&lt;/div&gt;&lt;div&gt;&lt;br&gt;&lt;/div&gt;&lt;div&gt;SN zu fremdem Fondsverwaltungssystem&lt;br&gt;&lt;/div&gt;&lt;div&gt;&lt;br&gt;&lt;/div&gt;" style="text;html=1;strokeColor=none;fillColor=none;spacing=5;spacingTop=-20;whiteSpace=wrap;overflow=hidden;rounded=0;" vertex="1" parent="1">
          <mxGeometry x="480" y="560" width="190" height="230" as="geometry" />
        </mxCell>
        <mxCell id="FdKZKXFYypH6AvHxXqry-13" value="&lt;h1&gt;&lt;font style=&quot;font-size: 18px;&quot;&gt;BAVOS vollständig für Anwärter&lt;br&gt;&lt;/font&gt;&lt;/h1&gt;&lt;div&gt;Anwärter PK, UK, PF&lt;/div&gt;&lt;div&gt;Rentenabrechnung und B2A noch in SAP&lt;br&gt;&lt;/div&gt;" style="text;html=1;strokeColor=none;fillColor=none;spacing=5;spacingTop=-20;whiteSpace=wrap;overflow=hidden;rounded=0;" vertex="1" parent="1">
          <mxGeometry x="480" y="760" width="190" height="180" as="geometry" />
        </mxCell>
        <mxCell id="FdKZKXFYypH6AvHxXqry-14" value="&lt;h1&gt;&lt;font style=&quot;font-size: 18px;&quot;&gt;BAVOS vollständig für Anwärter und Rentner&lt;br&gt;&lt;/font&gt;&lt;/h1&gt;&lt;h1&gt;&lt;/h1&gt;&lt;div&gt;neue Systeme für Rentenzahlungen und B2A-Meldungen&lt;/div&gt;&lt;div&gt;&lt;br&gt;&lt;/div&gt;&lt;div&gt;vollständige Ablösung von SAP als Bestandsverwaltung&lt;br&gt;&lt;/div&gt;" style="text;html=1;strokeColor=none;fillColor=none;spacing=5;spacingTop=-20;whiteSpace=wrap;overflow=hidden;rounded=0;" vertex="1" parent="1">
          <mxGeometry x="480" y="960" width="190" height="230" as="geometry" />
        </mxCell>
        <mxCell id="FdKZKXFYypH6AvHxXqry-15" value="2" style="ellipse;whiteSpace=wrap;html=1;aspect=fixed;" vertex="1" parent="1">
          <mxGeometry x="420" y="280" width="21" height="21" as="geometry" />
        </mxCell>
        <mxCell id="FdKZKXFYypH6AvHxXqry-16" value="4" style="ellipse;whiteSpace=wrap;html=1;aspect=fixed;" vertex="1" parent="1">
          <mxGeometry x="415" y="560" width="30" height="30" as="geometry" />
        </mxCell>
        <mxCell id="FdKZKXFYypH6AvHxXqry-17" value="8" style="ellipse;whiteSpace=wrap;html=1;aspect=fixed;" vertex="1" parent="1">
          <mxGeometry x="410" y="760" width="42" height="42" as="geometry" />
        </mxCell>
        <mxCell id="FdKZKXFYypH6AvHxXqry-18" value="6" style="ellipse;whiteSpace=wrap;html=1;aspect=fixed;" vertex="1" parent="1">
          <mxGeometry x="412" y="970" width="36" height="36" as="geometry" />
        </mxCell>
        <mxCell id="FdKZKXFYypH6AvHxXqry-19" value="&lt;font size=&quot;1&quot;&gt;&lt;b style=&quot;font-size: 14px;&quot;&gt;06 / 2023&lt;/b&gt;&lt;/font&gt;" style="rounded=1;whiteSpace=wrap;html=1;fillColor=#191970;strokeColor=#191970;fontColor=#ffff66;" vertex="1" parent="1">
          <mxGeometry x="290" y="125" width="90" height="30" as="geometry" />
        </mxCell>
        <mxCell id="FdKZKXFYypH6AvHxXqry-20" value="&lt;font size=&quot;1&quot;&gt;&lt;b style=&quot;font-size: 14px;&quot;&gt;11 / 2023&lt;/b&gt;&lt;/font&gt;" style="rounded=1;whiteSpace=wrap;html=1;fillColor=#191970;strokeColor=#191970;fontColor=#ffff66;" vertex="1" parent="1">
          <mxGeometry x="290" y="270" width="90" height="30" as="geometry" />
        </mxCell>
        <mxCell id="FdKZKXFYypH6AvHxXqry-21" value="&lt;font size=&quot;1&quot;&gt;&lt;b style=&quot;font-size: 14px;&quot;&gt;09 / 2024&lt;/b&gt;&lt;/font&gt;" style="rounded=1;whiteSpace=wrap;html=1;fillColor=#191970;strokeColor=#191970;fontColor=#ffff66;" vertex="1" parent="1">
          <mxGeometry x="290" y="560" width="90" height="30" as="geometry" />
        </mxCell>
        <mxCell id="FdKZKXFYypH6AvHxXqry-22" value="&lt;font size=&quot;1&quot;&gt;&lt;b style=&quot;font-size: 14px;&quot;&gt;02 / 2026&lt;/b&gt;&lt;/font&gt;" style="rounded=1;whiteSpace=wrap;html=1;fillColor=#191970;strokeColor=#191970;fontColor=#ffff66;" vertex="1" parent="1">
          <mxGeometry x="290" y="766" width="90" height="30" as="geometry" />
        </mxCell>
        <mxCell id="FdKZKXFYypH6AvHxXqry-23" value="&lt;font size=&quot;1&quot;&gt;&lt;b style=&quot;font-size: 14px;&quot;&gt;12 / 2026&lt;/b&gt;&lt;/font&gt;" style="rounded=1;whiteSpace=wrap;html=1;fillColor=#191970;strokeColor=#191970;fontColor=#ffff66;" vertex="1" parent="1">
          <mxGeometry x="290" y="973" width="90" height="30" as="geometry" />
        </mxCell>
        <mxCell id="FdKZKXFYypH6AvHxXqry-24" value="&lt;div&gt;rückgerechnet anhand relativer Größe auf Basis sehr simpler Schätzung&lt;/div&gt;&lt;div&gt;(&quot;McK freestyle&quot;)&lt;br&gt;&lt;/div&gt;" style="endArrow=classic;html=1;rounded=0;" edge="1" parent="1">
          <mxGeometry width="50" height="50" relative="1" as="geometry">
            <mxPoint x="240" y="985" as="sourcePoint" />
            <mxPoint x="240" y="280" as="targetPoint" />
          </mxGeometry>
        </mxCell>
        <mxCell id="FdKZKXFYypH6AvHxXqry-25" value="Fehlerhafte Meldung über Versorgungsträger hinweg" style="rounded=1;whiteSpace=wrap;html=1;fontColor=#ffff66;fillColor=#990000;strokeColor=#990000;" vertex="1" parent="1">
          <mxGeometry x="810" y="959.5" width="230" height="57" as="geometry" />
        </mxCell>
        <mxCell id="FdKZKXFYypH6AvHxXqry-26" value="&lt;div&gt;Unabhängig von Roadmap: Abrechnung und GovInterface suchen&lt;/div&gt;" style="rounded=1;whiteSpace=wrap;html=1;fontColor=#ffff66;fillColor=#990000;strokeColor=#990000;" vertex="1" parent="1">
          <mxGeometry x="810" y="1030" width="230" height="57" as="geometry" />
        </mxCell>
        <mxCell id="FdKZKXFYypH6AvHxXqry-27" value="entspricht das der BVV-Produktstrategie?" style="rounded=1;whiteSpace=wrap;html=1;fontColor=#ffff66;fillColor=#990000;strokeColor=#990000;" vertex="1" parent="1">
          <mxGeometry x="810" y="660" width="230" height="57" as="geometry" />
        </mxCell>
      </root>
    </mxGraphModel>
  </diagram>
</mxfile>
